# xmcd
#
# Track frame offsets: 
#        150
#        18224
#        34068
#        50111
#        71620
#        88235
#        105659
#        126467
#        137283
#        153145
#        191533
#
# Disc length: 2811 seconds
#
# Revision: 0
# Processed by: cddbd v1.5.2PL0 Copyright (c) Steve Scherf et al.
# Submitted via: ExactAudioCopyFreeDBPlugin 1.0
#
DISCID=900af90b
DTITLE=Ad Vanderveen - Days of the Greats
DYEAR=2011
DGENRE=Country-Rock
TTITLE0=Days Of The Greats
TTITLE1=Just Like Life
TTITLE2=New Late Bloomer
TTITLE3=No Way To Quit
TTITLE4=How Free
TTITLE5=Grow Old With Me
TTITLE6=Slippin' Past
TTITLE7=Songbird
TTITLE8=Good And Gone
TTITLE9=Well Of Wonder
TTITLE10=Is Everybody Gone
EXTD=
EXTT0=
EXTT1=
EXTT2=
EXTT3=
EXTT4=
EXTT5=
EXTT6=
EXTT7=
EXTT8=
EXTT9=
EXTT10=
PLAYORDER=
